<svg width="121" height="121" viewBox="0 0 121 121" fill="none" xmlns="http://www.w3.org/2000/svg">
<g filter="url(#filter0_d_1_290)">
<circle cx="60.7572" cy="48.2657" r="30" fill="white"/>
</g>
<g clip-path="url(#clip0_1_290)">
<path d="M64.9001 49.4279L62.5551 51.7808C61.6041 52.7351 59.9309 52.7557 58.9594 51.7808L56.6142 49.4279L48.1914 57.8779C48.505 58.0229 48.8506 58.1094 49.2181 58.1094H72.2963C72.6638 58.1094 73.0093 58.023 73.3228 57.878L64.9001 49.4279Z" fill="#64646A"/>
<path d="M72.2963 38.4219H49.2181C48.8506 38.4219 48.505 38.5085 48.1915 38.6534L57.1918 47.6836C57.1924 47.6842 57.1932 47.6843 57.1938 47.6849C57.1944 47.6855 57.1945 47.6863 57.1945 47.6863L60.121 50.6225C60.4318 50.9333 61.0827 50.9333 61.3935 50.6225L64.3194 47.6868C64.3194 47.6868 64.3201 47.6855 64.3207 47.6849C64.3207 47.6849 64.3221 47.6842 64.3227 47.6836L73.3227 38.6534C73.0093 38.5083 72.6638 38.4219 72.2963 38.4219Z" fill="#64646A"/>
<path d="M47.0189 39.8007C46.8567 40.1287 46.7572 40.4928 46.7572 40.8829V55.6485C46.7572 56.0385 46.8566 56.4026 47.0189 56.7307L55.4562 48.266L47.0189 39.8007Z" fill="#64646A"/>
<path d="M74.4955 39.8006L66.0582 48.266L74.4955 56.7308C74.6577 56.4027 74.7572 56.0386 74.7572 55.6485V40.8829C74.7572 40.4927 74.6577 40.1286 74.4955 39.8006Z" fill="#64646A"/>
</g>
<defs>
<filter id="filter0_d_1_290" x="0.757202" y="0.265686" width="120" height="120" filterUnits="userSpaceOnUse" color-interpolation-filters="sRGB">
<feFlood flood-opacity="0" result="BackgroundImageFix"/>
<feColorMatrix in="SourceAlpha" type="matrix" values="0 0 0 0 0 0 0 0 0 0 0 0 0 0 0 0 0 0 127 0" result="hardAlpha"/>
<feOffset dy="12"/>
<feGaussianBlur stdDeviation="15"/>
<feComposite in2="hardAlpha" operator="out"/>
<feColorMatrix type="matrix" values="0 0 0 0 0.802604 0 0 0 0 0.820052 0 0 0 0 0.8375 0 0 0 0.28 0"/>
<feBlend mode="normal" in2="BackgroundImageFix" result="effect1_dropShadow_1_290"/>
<feBlend mode="normal" in="SourceGraphic" in2="effect1_dropShadow_1_290" result="shape"/>
</filter>
<clipPath id="clip0_1_290">
<rect width="28" height="28" fill="white" transform="translate(46.7572 34.2657)"/>
</clipPath>
</defs>
</svg>
