<svg width="176" height="170" viewBox="0 0 176 170" fill="none" xmlns="http://www.w3.org/2000/svg">
<g filter="url(#filter0_d_1_25)">
<circle cx="88" cy="52" r="28" fill="white"/>
</g>
<path d="M84.132 42.5039L80.42 48.9999H79C78.688 48.9999 78.395 49.1459 78.205 49.3929C78.016 49.6409 77.953 49.9629 78.035 50.2629L80.834 60.5259C81.07 61.3939 81.864 61.9999 82.764 61.9999H93.237C94.135 61.9999 94.929 61.3949 95.167 60.5249L97.966 50.2619C98.048 49.9619 97.986 49.6399 97.796 49.3919C97.605 49.1459 97.312 48.9999 97 48.9999H95.58L91.868 42.5039L90.132 43.4959L93.277 48.9999H82.723L85.868 43.4959L84.132 42.5039ZM90 52.9999H92V57.9999H90V52.9999ZM84 52.9999H86V57.9999H84V52.9999Z" fill="#1B1B1D"/>
<defs>
<filter id="filter0_d_1_25" x="0" y="-6" width="176" height="176" filterUnits="userSpaceOnUse" color-interpolation-filters="sRGB">
<feFlood flood-opacity="0" result="BackgroundImageFix"/>
<feColorMatrix in="SourceAlpha" type="matrix" values="0 0 0 0 0 0 0 0 0 0 0 0 0 0 0 0 0 0 127 0" result="hardAlpha"/>
<feOffset dy="30"/>
<feGaussianBlur stdDeviation="30"/>
<feComposite in2="hardAlpha" operator="out"/>
<feColorMatrix type="matrix" values="0 0 0 0 0.63875 0 0 0 0 0.659167 0 0 0 0 0.7 0 0 0 0.15 0"/>
<feBlend mode="normal" in2="BackgroundImageFix" result="effect1_dropShadow_1_25"/>
<feBlend mode="normal" in="SourceGraphic" in2="effect1_dropShadow_1_25" result="shape"/>
</filter>
</defs>
</svg>
