<?xml version="1.0" standalone="no"?>
<!DOCTYPE svg PUBLIC "-//W3C//DTD SVG 20010904//EN"
 "http://www.w3.org/TR/2001/REC-SVG-20010904/DTD/svg10.dtd">
<svg version="1.0" xmlns="http://www.w3.org/2000/svg"
 width="56.000000pt" height="56.000000pt" viewBox="0 0 56.000000 56.000000"
 preserveAspectRatio="xMidYMid meet">

<g transform="translate(0.000000,56.000000) scale(0.100000,-0.100000)"
fill="#000000" stroke="none">
<path d="M225 341 c-8 -16 -20 -31 -26 -33 -16 -5 7 -105 26 -116 7 -4 40 -6
73 -4 l59 4 13 56 c9 42 9 57 1 60 -6 2 -18 17 -26 33 -9 16 -20 29 -26 29 -6
0 -6 -6 1 -19 17 -33 12 -38 -35 -39 -32 -1 -45 3 -45 13 0 7 5 17 10 20 13 8
13 25 0 25 -5 0 -16 -13 -25 -29z m38 -103 c-10 -21 -12 -21 -18 -5 -10 25 2
54 17 39 8 -8 8 -18 1 -34z m65 6 c-1 -10 -7 -18 -12 -18 -11 -1 -17 34 -9 47
8 14 25 -9 21 -29z"/>
</g>
</svg>
